<svg version="1.1" xmlns="http://www.w3.org/2000/svg" viewBox="-241.66399688720702 -1034.2400390625 6580.22421875 1576.96005859375"><desc>Created with Snap</desc><defs></defs><g><rect x="-241.66399688720702" y="-1034.2400390625" width="6580.22421875" height="1576.96005859375" fill="#000000" style=""></rect><g><g transform="matrix(1.024,0,0,-1.024,0,0)"><g transform="matrix(1,0,0,1,0,0)"><path d="M64 0L117 630L237 630L369 228Q379 199 388 171Q397 144 405 116L407 116Q415 144 423 170Q432 196 443 228L572 630L692 630L747 0L655 0L629 334Q625 383 623 431Q621 480 619 530L617 530Q603 481 588 432Q574 383 558 334L447 0L363 0L252 335Q235 386 221 432Q207 479 193 530L191 530Q189 481 185 432Q182 383 178 334L154 0L64 0Z" fill="#ffffff" style=""></path></g><g transform="matrix(1,0,0,1,811,0)"><path d="M107 364L73 428Q97 440 118 449Q139 459 160 465Q181 471 203 474Q225 477 251 477Q290 477 322 468Q355 460 378 440Q402 420 415 387Q428 355 428 306L428 0L355 0L344 52L342 52Q311 19 274 5Q237 -9 192 -9Q158 -9 129 0Q101 10 80 27Q59 45 47 70Q36 95 36 126Q36 200 94 238Q153 277 249 277L339 277L339 317Q339 368 313 386Q287 405 243 405Q217 405 183 396Q150 388 107 364ZM340 121L340 217L266 215Q191 213 159 188Q128 164 128 129Q128 108 135 93Q142 79 153 71Q165 63 180 59Q196 56 213 56Q246 56 280 71Q314 87 340 121Z" fill="#ffffff" style=""></path></g><g transform="matrix(1,0,0,1,1300,0)"><path d="M291 59Q323 59 347 66Q371 73 394 84L413 18Q359 -9 284 -9Q233 -9 188 6Q144 21 110 51Q77 82 58 127Q39 173 39 234Q39 290 57 335Q75 380 107 411Q139 443 184 460Q229 477 283 477Q314 477 343 472Q373 468 411 451L391 384Q345 410 292 410Q219 410 174 364Q129 319 129 237Q129 186 143 152Q157 118 180 97Q203 77 232 68Q261 59 291 59Z" fill="#ffffff" style=""></path></g><g transform="matrix(1,0,0,1,1742,0)"><path d="M157 340L157 0L69 0L69 710L157 710L157 410Q190 439 230 458Q270 477 318 477Q357 477 386 465Q415 454 433 433Q452 413 461 385Q471 357 471 324L471 0L383 0L383 302Q383 356 361 380Q339 405 294 405Q260 405 225 388Q191 371 157 340Z" fill="#ffffff" style=""></path></g><g transform="matrix(1,0,0,1,2282,0)"><path d="M170 0L82 0L82 470L170 470L170 0ZM126 591Q103 591 86 606Q70 622 70 645Q70 668 86 684Q103 700 126 700Q148 700 165 684Q182 668 182 645Q182 622 165 606Q148 591 126 591Z" fill="#ffffff" style=""></path></g><g transform="matrix(1,0,0,1,2528,0)"><path d="M156 342L156 0L68 0L68 470L137 470L150 405Q185 440 223 458Q262 477 312 477Q384 477 425 436Q466 396 466 324L466 0L378 0L378 311Q378 354 355 379Q333 405 287 405Q217 405 156 342Z" fill="#ffffff" style=""></path></g><g transform="matrix(1,0,0,1,3062,0)"><path d="M468 271L468 225L131 225L131 221Q131 143 173 101Q216 59 289 59Q327 59 356 65Q386 71 421 85L439 20Q410 7 370 -1Q331 -9 286 -9Q235 -9 190 5Q146 19 112 48Q78 78 58 124Q39 170 39 234Q39 289 55 334Q72 379 102 410Q132 442 174 459Q217 477 270 477Q315 477 351 462Q388 447 414 420Q440 393 454 355Q468 317 468 271ZM133 286L377 288Q377 314 370 336Q364 359 350 376Q337 393 316 403Q295 413 265 413Q210 413 175 378Q141 343 133 286Z" fill="#ffffff" style=""></path></g><g transform="matrix(1,0,0,1,3566,0)"><path fill="#ffffff" style=""></path></g><g transform="matrix(1,0,0,1,3788,0)"><path d="M257 639Q303 639 346 631Q389 624 431 604L409 528Q366 548 331 556Q297 565 261 565Q204 565 171 540Q138 515 138 470Q138 432 162 409Q187 386 243 369L306 349Q392 322 427 275Q463 229 463 171Q463 130 446 96Q430 63 400 39Q371 16 331 3Q291 -9 243 -9Q195 -9 145 -1Q96 8 47 31L69 106Q112 85 153 75Q194 65 239 65Q293 65 331 90Q369 115 369 164Q369 182 363 197Q358 213 344 227Q331 241 308 253Q285 265 250 276L187 296Q118 318 81 356Q44 394 44 459Q44 542 98 590Q153 639 257 639Z" fill="#ffffff" style=""></path></g><g transform="matrix(1,0,0,1,4293,0)"><path d="M157 340L157 0L69 0L69 710L157 710L157 410Q190 439 230 458Q270 477 318 477Q357 477 386 465Q415 454 433 433Q452 413 461 385Q471 357 471 324L471 0L383 0L383 302Q383 356 361 380Q339 405 294 405Q260 405 225 388Q191 371 157 340Z" fill="#ffffff" style=""></path></g><g transform="matrix(1,0,0,1,4833,0)"><g transform="matrix(1.2623,0,0,1.2623,-172.4416,688.4416)"><g transform="matrix(1,0,0,-1,0,0)">
<g>
	<path d="M360,167.5c-106.1,0-192.5,86.3-192.5,192.5S253.9,552.5,360,552.5S552.5,466.1,552.5,360S466.1,167.5,360,167.5z
		 M415.7,509.5c-35.9,13.4-75.5,13.4-111.4,0v-50c13.5,7.2,28.2,11.7,43.4,13.2h0.4c1,0.1,1.9,0.2,2.9,0.3l0.8,0.1
		c0.9,0.1,1.7,0.1,2.6,0.2h0.8c1.1,0,2.2,0.1,3.3,0.1h1.7h1.2h1.3c0.8,0,1.6,0,2.4-0.1l2-0.1c0.7,0,1.4-0.1,2.1-0.1l1.5-0.1
		c0.6,0,1.3-0.1,1.9-0.2l1.4-0.2c0.8-0.1,1.6-0.2,2.4-0.3l0.8-0.1c1.2-0.2,2.3-0.3,3.4-0.5h0.3c1.1-0.2,2.2-0.4,3.3-0.6h0.2
		c10.9-2.3,21.4-6.1,31.2-11.3V509.5z M418.6,442.6c-16.6,11.1-36,17.2-56,17.7h0c-1.3,0-2.7,0-4,0c-1.1,0-2.3-0.1-3.4-0.1l-0.9,0
		c-0.9,0-1.8-0.1-2.7-0.2h-0.7c-1-0.1-2-0.2-3.1-0.3l-1.5-0.2l-1.6-0.2c-50.2-7.5-89.6-51.1-90.3-103.1
		c-0.4-40.2,21.9-77.3,57.7-95.7v94.7c0,2.2,1.1,4.2,2.9,5.4l44.1,29.8c2.3,1.6,5.4,1.5,7.6-0.2l38.8-29.8c1.6-1.2,2.5-3.1,2.5-5.2
		v-94.7c52,26.5,72.7,90.2,46.2,142.2c-5.1,10.1-11.9,19.3-19.9,27.2c-4.7,4.6-9.8,8.8-15.3,12.5
		C418.8,442.5,418.7,442.6,418.6,442.6z M428.7,503.9v-52.4c5.2-3.7,10.1-7.8,14.6-12.3c46.7-46,47.2-121.2,1.1-167.9
		c-11.5-11.7-25.4-20.9-40.6-26.9c-3.3-1.3-7.1,0.3-8.5,3.7c-0.3,0.7-0.5,1.5-0.5,2.3V352l-32.5,25L325,351.8V250.4
		c0-3.6-3-6.5-6.6-6.5c-0.8,0-1.6,0.2-2.3,0.5c-60.9,24.2-90.6,93.1-66.4,153.9c6,15.1,15,28.8,26.5,40.2c4.7,4.7,9.7,9,15.1,12.8
		V504c-55.4-26.5-90.7-82.5-90.8-144c0-88,71.5-159.5,159.5-159.5S519.5,272,519.5,360C519.4,421.4,484.1,477.4,428.7,503.9z" fill="#ffffff" style=""></path>
</g>
<desc>Created with Snap</desc><defs></defs></g></g></g><g transform="matrix(1,0,0,1,5397,0)"><path d="M263 -9Q231 -9 201 0Q172 9 151 24L151 -230L64 -230L64 477L137 477L150 416Q177 441 211 459Q245 477 291 477Q385 477 439 417Q493 357 493 245Q493 179 473 131Q454 83 421 52Q389 21 347 6Q306 -9 263 -9ZM272 405Q230 405 199 384Q168 364 151 343L151 92Q174 75 200 67Q226 59 252 59Q279 59 306 68Q333 78 354 100Q375 122 388 157Q401 192 401 243Q401 318 369 361Q338 405 272 405Z" fill="#ffffff" style=""></path></g></g></g></g></svg>